<?xml version="1.0" encoding="utf-8"?>
<!-- Generator: Adobe Illustrator 17.1.0, SVG Export Plug-In . SVG Version: 6.00 Build 0)  -->
<!DOCTYPE svg PUBLIC "-//W3C//DTD SVG 1.1//EN" "http://www.w3.org/Graphics/SVG/1.1/DTD/svg11.dtd">
<svg version="1.1" id="Behance" xmlns="http://www.w3.org/2000/svg" xmlns:xlink="http://www.w3.org/1999/xlink" x="0px" y="0px"
	 viewBox="0 0 128 128" enable-background="new 0 0 128 128" xml:space="preserve">
<g>
	<circle id="behance-back" fill="#929292" cx="64" cy="64" r="64"/>
	<path id="behance-behance" fill-rule="evenodd" clip-rule="evenodd" fill="#FFFFFF" d="M48.5728,66.4697H37.1035v12.1026h11.2901
		c3.8808,0,6.955-1.2364,6.955-5.8106C55.3486,68.2754,52.7588,66.4697,48.5728,66.4697z M47.0996,48.8545h-9.9961v10.2959h10.7471
		c3.4048,0,5.9639-1.5347,5.9639-5.2363C53.8145,49.6973,50.5913,48.8545,47.0996,48.8545z M65.4043,72.9414
		c0,8.9453-7.6782,12.7676-15.6865,12.7676H28.1602V41.417h20.9277c8.4565,0,14.208,2.9824,14.208,11.2007
		c0,4.3066-2.1953,7.3164-6.0488,9.1816C62.6631,63.3364,65.4043,67.4639,65.4043,72.9414z M75.9434,44.3994h17.8222v5.9307H75.9434
		V44.3994z M83.9209,59.5732c-5.6006,0-7.2275,3.1329-7.3467,5.5694h14.3926C90.1543,60.7183,88.2285,59.5732,83.9209,59.5732z
		 M76.5742,70.8965c0.2403,5.539,2.9805,9.0918,7.8906,9.0918c3.5508,0,6.8038-2.8926,7.378-4.877h7.7666
		c-2.4688,7.5293-8.1621,11.4717-15.4473,11.4717c-10.1445,0-16.5312-6.8975-16.5312-16.7725c0-9.5459,6.7734-16.832,16.5312-16.832
		c10.9629,0,16.2598,8.1011,15.627,17.918H76.5742z"/>
</g>
</svg>
