<?xml version="1.0" encoding="utf-8"?>
<!-- Generator: Adobe Illustrator 17.1.0, SVG Export Plug-In . SVG Version: 6.00 Build 0)  -->
<!DOCTYPE svg PUBLIC "-//W3C//DTD SVG 1.1//EN" "http://www.w3.org/Graphics/SVG/1.1/DTD/svg11.dtd">
<svg version="1.1" id="Dribbble" xmlns="http://www.w3.org/2000/svg" xmlns:xlink="http://www.w3.org/1999/xlink" x="0px" y="0px"
	 viewBox="0 0 128 128" enable-background="new 0 0 128 128" xml:space="preserve">
<g id="dribbble-dribbble">
	<circle id="dribbble-back" fill="#929292" cx="64" cy="64" r="64"/>
	<path id="dribbble-dribble" fill="#FFFFFF" d="M80.9063,88.6953c-1.2276-7.1953-3.2247-14.0332-5.6446-20.3945
		c5.2246-0.6553,11.2608-0.5098,18.25,0.7783C92.1064,77.1992,87.4473,84.1875,80.9063,88.6953z M45.8398,87.7715
		c5.0508-7.6152,12.1011-15.1416,23.5362-18.3067c2.6885,6.8663,4.8662,14.336,6.0371,22.2217
		C71.8906,93.1201,68.0322,93.9258,64,93.9258C57.1626,93.9258,50.8628,91.625,45.8398,87.7715z M34.0737,64v-0.9575h0.1792
		c10.6626,0,21.2691-0.7168,30.7608-3.4946c0.6894,1.4335,1.4111,2.8979,2.0605,4.4213
		c-12.4819,3.6763-20.2773,11.8863-25.5918,19.7095C36.8516,78.4258,34.0737,71.5264,34.0737,64z M51.126,36.9688
		c3.0464,4.0629,7.1118,9.9765,11.082,17.2031c-8.4228,2.3017-17.8301,2.9287-27.3276,2.9575
		C36.9746,48.23,43.0674,40.8525,51.126,36.9688z M83.3867,41.2109c-4.2109,5.1377-9.4971,8.6597-15.5058,11.0513
		c-3.8189-7.1089-7.795-13.0225-10.9253-17.354c2.268-0.5371,4.6255-0.8345,7.0444-0.8345
		C71.4092,34.0737,78.1572,36.7617,83.3867,41.2109z M87.5088,45.5117c3.8525,4.897,6.21,10.9898,6.418,17.6509
		c-8.0635-1.4028-14.9913-1.4644-20.9668-0.5068c-0.7725-1.7329-1.5508-3.4385-2.3575-5.0787
		C77.0195,54.9502,82.7891,51.0977,87.5088,45.5117z M64,28.1602c-19.8013,0-35.8398,16.038-35.8398,35.8398
		c0,19.8008,16.0385,35.8398,35.8398,35.8398c19.8018,0,35.8398-16.039,35.8398-35.8398C99.8398,44.1982,83.8018,28.1602,64,28.1602
		z"/>
</g>
</svg>
