<?xml version="1.0" encoding="utf-8"?>
<!-- Generator: Adobe Illustrator 17.1.0, SVG Export Plug-In . SVG Version: 6.00 Build 0)  -->
<!DOCTYPE svg PUBLIC "-//W3C//DTD SVG 1.1//EN" "http://www.w3.org/Graphics/SVG/1.1/DTD/svg11.dtd">
<svg version="1.1" id="Google_x2B_" xmlns="http://www.w3.org/2000/svg" xmlns:xlink="http://www.w3.org/1999/xlink" x="0px"
	 y="0px" viewBox="0 0 128 128" enable-background="new 0 0 128 128" xml:space="preserve">
<g>
	<circle id="google--back" fill="#929292" cx="64" cy="64" r="64"/>
	<g id="google--google-">
		<g>
			<path fill="#FFFFFF" d="M28.1738,64.0293c-0.4472-11.7427,9.8399-22.5938,21.5938-22.7354
				c5.9922-0.5112,11.8183,1.8145,16.3554,5.6114c-1.8593,2.0425-3.7558,4.0654-5.7734,5.9585
				c-3.9946-2.4253-8.7988-4.273-13.4629-2.6324c-7.5273,2.1426-12.0786,11.0259-9.2988,18.3877
				c2.3066,7.6856,11.6601,11.9034,18.9863,8.6739c3.7969-1.3575,6.2949-4.8594,7.3926-8.6211
				c-4.3496-0.0869-8.6992-0.0332-13.0493-0.1543c-0.0073-2.5879-0.021-5.1626-0.0073-7.7505
				c7.2519-0.0108,14.5156-0.0317,21.7793,0.0347c0.4433,6.3369-0.4903,13.123-4.6094,18.2099
				c-5.6446,7.2637-16.0723,9.3946-24.5532,6.5469C34.5215,82.6025,27.9785,73.5332,28.1738,64.0293"/>
			<path fill="#FFFFFF" d="M86.8242,54.2437h6.4688c0.0117,2.1645,0.0312,4.3374,0.0429,6.5019
				c2.1641,0.0215,4.3399,0.0303,6.5039,0.0444v6.4795c-2.164,0.0098-4.3398,0.0215-6.5039,0.0313
				c-0.0195,2.1738-0.0312,4.3388-0.0429,6.5137c-2.1641-0.0098-4.3282,0-6.4825,0c-0.0214-2.1749-0.0214-4.3399-0.041-6.502
				c-2.164-0.0215-4.3408-0.0332-6.5-0.043V60.79c2.1592-0.0141,4.3243-0.0229,6.5-0.0444
				C86.7813,58.5811,86.8027,56.4082,86.8242,54.2437"/>
		</g>
	</g>
</g>
</svg>
