<?xml version="1.0" encoding="utf-8"?>
<!-- Generator: Adobe Illustrator 17.1.0, SVG Export Plug-In . SVG Version: 6.00 Build 0)  -->
<!DOCTYPE svg PUBLIC "-//W3C//DTD SVG 1.1//EN" "http://www.w3.org/Graphics/SVG/1.1/DTD/svg11.dtd">
<svg version="1.1" id="Pinterest" xmlns="http://www.w3.org/2000/svg" xmlns:xlink="http://www.w3.org/1999/xlink" x="0px" y="0px"
	 viewBox="0 0 128 128" enable-background="new 0 0 128 128" xml:space="preserve">
<g>
	<circle id="pinterest-back" fill="#929292" cx="64" cy="64" r="64"/>
	<path id="pinterest-pinterest" fill="#FFFFFF" d="M91.7451,51.7451c0,16.1553-8.9746,28.2197-22.2148,28.2197
		c-4.4453,0-8.625-2.4043-10.0601-5.1347c0,0-2.3901,9.4912-2.895,11.3203c-1.7798,6.4648-7.0249,12.9394-7.4307,13.4746
		c-0.2841,0.3652-0.9145,0.25-0.9795-0.2344c-0.1147-0.8252-1.4502-8.9902,0.125-15.6504c0.7901-3.3398,5.295-22.4345,5.295-22.4345
		s-1.3155-2.6304-1.3155-6.5157c0-6.1025,3.5406-10.6572,7.9405-10.6572c3.7451,0,5.5556,2.8096,5.5556,6.1797
		c0,3.7676-2.3955,9.3975-3.6352,14.6123c-1.0352,4.3701,2.1899,7.9307,6.4995,7.9307c7.7988,0,13.0488-10.0205,13.0488-21.8907
		c0-9.0224-6.0732-15.7797-17.1284-15.7797c-12.4854,0-20.2705,9.3149-20.2705,19.7202c0,3.5849,1.06,6.1172,2.7153,8.0722
		c0.7603,0.9004,0.8701,1.2627,0.5943,2.2979c-0.2041,0.7598-0.649,2.5801-0.8443,3.3047c-0.27,1.04-1.1147,1.415-2.06,1.0303
		c-5.75-2.3506-8.4297-8.6504-8.4297-15.73c0-11.6978,9.8647-25.7202,29.4233-25.7202
		C81.4053,28.1602,91.7451,39.5327,91.7451,51.7451z"/>
</g>
</svg>
