<?xml version="1.0" encoding="utf-8"?>
<!-- Generator: Adobe Illustrator 17.1.0, SVG Export Plug-In . SVG Version: 6.00 Build 0)  -->
<!DOCTYPE svg PUBLIC "-//W3C//DTD SVG 1.1//EN" "http://www.w3.org/Graphics/SVG/1.1/DTD/svg11.dtd">
<svg version="1.1" id="Reddit" xmlns="http://www.w3.org/2000/svg" xmlns:xlink="http://www.w3.org/1999/xlink" x="0px" y="0px"
	 viewBox="0 0 128 128" enable-background="new 0 0 128 128" xml:space="preserve">
<g id="reddit-reddit">
	<circle id="reddit-back" fill="#929292" cx="64" cy="64" r="64"/>
	<g id="reddit-reddit_1_">
		<path fill="#FFFFFF" d="M58.7402,50.5146c0-2.4624-2.0039-4.4663-4.4668-4.4663c-2.4619,0-4.4653,2.0039-4.4653,4.4663
			c0,2.462,2.0034,4.4654,4.4653,4.4654C56.7363,54.98,58.7402,52.9766,58.7402,50.5146z"/>
		<path fill="#FFFFFF" d="M73.7217,46.0464c-2.4639,0-4.4678,2.0049-4.4678,4.4682c0,2.4634,2.0039,4.4673,4.4678,4.4673
			c2.4648,0,4.4697-2.0039,4.4697-4.4673C78.1914,48.0513,76.1865,46.0464,73.7217,46.0464z"/>
		<path fill="#FFFFFF" d="M72.6602,61.4458c-1.6866,1.6851-4.543,2.5029-8.6612,2.5029c-4.1181,0-6.9736-0.8178-8.6582-2.5019
			c-0.4844-0.4844-1.2695-0.4849-1.7539-0.0005c-0.4844,0.4849-0.4844,1.27,0,1.7544c2.1729,2.1733,5.6026,3.229,10.4121,3.229
			c4.8076,0,8.2383-1.0557,10.4141-3.2285c0.4844-0.4839,0.4844-1.2696,0.0019-1.7539
			C73.9297,60.9629,73.1455,60.9619,72.6602,61.4458z"/>
		<path fill="#FFFFFF" d="M96.2578,45.6489c0-4.0444-3.289-7.3349-7.333-7.3349c-1.8662,0-3.5703,0.7026-4.8652,1.8554
			c-4.9756-3.2055-11.4112-5.0805-18.2979-5.3549l3.7803-11.9532l10.2842,2.42c0.0195,3.3159,2.7217,6.0073,6.041,6.0073
			c3.334,0,6.0469-2.7115,6.0469-6.044c0-3.333-2.7129-6.0444-6.0469-6.0444c-2.4815,0-4.6172,1.5044-5.5469,3.6489l-11.3281-2.6665
			c-0.6338-0.1494-1.2725,0.2144-1.4697,0.833l-4.3555,13.773c-7.2373,0.1357-14.0293,2.0307-19.2266,5.3794
			c-1.2959-1.1519-2.999-1.854-4.8652-1.854c-4.0439,0-7.335,3.2905-7.335,7.3349c0,2.6734,1.4385,5.0157,3.5821,6.2974
			c-0.1094,0.687-0.166,1.3823-0.166,2.084c0,5.2446,3.0712,10.1372,8.6474,13.7773c1.7744,1.1582,3.7402,2.1416,5.8467,2.9463
			c-4.1123,1.9609-7.0234,6.7324-7.0234,12.2949c0,6.2842,3.7148,11.5567,8.6796,12.9092c0.3877,1.21,0.8184,2.3613,1.2881,3.4463
			c-0.2285-0.0166-0.459-0.0283-0.6924-0.0283c-4.4638,0-8.0947,3.0488-8.0947,6.7959c0,0.5605,0.0987,1.1396,0.3037,1.7695
			c0.1651,0.5117,0.6421,0.8584,1.1797,0.8584h37.2344c0.5439,0,1.0234-0.3525,1.1846-0.8701
			c0.2021-0.6504,0.2959-1.208,0.2959-1.7578c0-3.7471-3.6329-6.7959-8.0987-6.7959c-0.167,0-0.333,0.0049-0.497,0.0136
			c0.4677-1.08,0.8964-2.2275,1.2822-3.4306c4.9648-1.3526,8.6797-6.626,8.6797-12.9102c0-5.5625-2.9121-10.3349-7.0235-12.2959
			c2.1055-0.8037,4.0723-1.7881,5.8457-2.9453c5.5772-3.6401,8.6485-8.5327,8.6485-13.7773c0-0.7017-0.0567-1.397-0.1651-2.084
			C94.8203,50.6646,96.2578,48.3223,96.2578,45.6489z M89.4326,25.2446c0,1.9644-1.5996,3.563-3.5654,3.563
			c-1.9639,0-3.5625-1.5986-3.5625-3.563c0-1.9648,1.5986-3.5639,3.5625-3.5639C87.833,21.6807,89.4326,23.2798,89.4326,25.2446z
			 M81.5254,106.1719c0,0.0478-0.0029,0.0976-0.0049,0.1474H71.0107c1.1163-1.1533,2.1446-2.5771,3.0655-4.2207
			c0.5742-0.1533,1.1884-0.2412,1.831-0.2412C79.0049,101.8574,81.5254,103.793,81.5254,106.1719z M51.9023,101.8574
			c0.7247,0,1.417,0.1065,2.0528,0.2998c0.9131,1.6201,1.9287,3.0225,3.0322,4.1621H46.2925
			c-0.0025-0.0498-0.0044-0.0986-0.0044-0.1474C46.2881,103.793,48.8066,101.8574,51.9023,101.8574z M67.0693,106.3193h-6.1416
			c-5.5156-3.1572-9.4892-14.165-9.4892-26.4072c0-2.8916,0.2217-5.6943,0.626-8.335c3.6992,1.1172,7.749,1.7081,11.9345,1.7081
			c4.1846,0,8.2354-0.5918,11.9365-1.709c0.4043,2.6406,0.626,5.4443,0.626,8.3359
			C76.5615,92.1533,72.585,103.1611,67.0693,106.3193z M49.2568,73.8828c-0.1943,1.9434-0.2998,3.957-0.2998,6.0293
			c0,4.6504,0.5396,9.0996,1.5127,13.0742c-3.146-1.625-5.3613-5.4658-5.3613-9.9375
			C45.1084,79.1777,46.7705,75.7813,49.2568,73.8828z M77.5293,92.9873c0.9736-3.9756,1.5127-8.4248,1.5127-13.0752
			c0-2.0723-0.1055-4.0859-0.3008-6.0293c2.4883,1.8975,4.1504,5.2949,4.1504,9.166
			C82.8916,87.5205,80.6748,91.3623,77.5293,92.9873z M63.999,70.8047c-14.5361,0-26.3613-7.5249-26.3613-16.7744
			c0-9.249,11.8252-16.7735,26.3613-16.7735c14.5362,0,26.3633,7.5245,26.3633,16.7735
			C90.3623,63.2798,78.5352,70.8047,63.999,70.8047z M39.0752,40.7949c1.0283,0,1.9824,0.3228,2.7676,0.8706
			c-2.833,2.2559-4.8194,4.8863-5.8555,7.7217c-1.0771-0.8911-1.7656-2.2349-1.7656-3.7383
			C34.2217,42.9727,36.3984,40.7949,39.0752,40.7949z M86.1563,41.6665c0.7851-0.5488,1.7392-0.8716,2.7685-0.8716
			c2.6768,0,4.8535,2.1778,4.8535,4.854c0,1.5034-0.6894,2.8472-1.7666,3.7383C90.9756,46.5522,88.9893,43.9219,86.1563,41.6665z"/>
	</g>
</g>
</svg>
