<?xml version="1.0" encoding="utf-8"?>
<!-- Generator: Adobe Illustrator 17.1.0, SVG Export Plug-In . SVG Version: 6.00 Build 0)  -->
<!DOCTYPE svg PUBLIC "-//W3C//DTD SVG 1.1//EN" "http://www.w3.org/Graphics/SVG/1.1/DTD/svg11.dtd">
<svg version="1.1" id="Snapchat" xmlns="http://www.w3.org/2000/svg" xmlns:xlink="http://www.w3.org/1999/xlink" x="0px" y="0px"
	 viewBox="0 0 128 128" enable-background="new 0 0 128 128" xml:space="preserve">
<g>
	<circle id="snapchat-back" fill="#929292" cx="64" cy="64" r="64"/>
	<g id="snapchat-snapchat">
		<path fill="#FFFFFF" d="M64.4434,96.9424c-0.1807,0-0.3584-0.0049-0.5362-0.0127l0,0c-0.1133,0.0078-0.2314,0.0127-0.3506,0.0127
			c-4.1582,0-6.8271-1.8867-9.4082-3.711c-1.7822-1.2597-3.4638-2.4482-5.4453-2.7783c-0.9668-0.1601-1.9297-0.2422-2.8593-0.2422
			c-1.6763,0-2.9981,0.2598-3.9629,0.4483c-0.586,0.1152-1.0918,0.2129-1.4766,0.2129c-0.4014,0-0.8374-0.086-1.0264-0.7325
			c-0.164-0.5605-0.2832-1.1025-0.3979-1.6269c-0.2945-1.3506-0.5034-2.1807-1.0698-2.2676
			c-6.5948-1.0176-8.4825-2.4082-8.9034-3.3926c-0.0595-0.1425-0.0937-0.2832-0.1015-0.4238
			c-0.0215-0.3779,0.247-0.7119,0.6211-0.7734c10.1386-1.6699,14.6855-12.0323,14.874-12.4717
			c0.0049-0.0127,0.0107-0.0244,0.0156-0.0361c0.6211-1.2579,0.7422-2.3496,0.3633-3.2442
			c-0.6963-1.6396-2.9658-2.3608-4.4678-2.8364c-0.3672-0.1167-0.7158-0.2271-0.9902-0.3355
			c-2.9981-1.1845-3.2476-2.4013-3.1294-3.0205c0.2007-1.0566,1.6128-1.7929,2.7544-1.7929c0.3125,0,0.5893,0.0556,0.8203,0.164
			c1.3486,0.6314,2.5635,0.9512,3.6128,0.9512c1.4477,0,2.0806-0.6084,2.1577-0.6885c-0.0371-0.686-0.082-1.4028-0.1289-2.1426
			c-0.3032-4.7934-0.6768-10.749,0.8398-14.1489c4.5445-10.1914,14.1836-10.9829,17.0293-10.9829
			c0.0733,0,1.2481-0.0127,1.2481-0.0127l0.168-0.0005c2.8525,0,12.5117,0.793,17.0595,10.9898
			c1.5176,3.4013,1.1416,9.3628,0.8399,14.1528l-0.0127,0.208c-0.042,0.667-0.083,1.315-0.1162,1.9361
			c0.0722,0.0737,0.6533,0.6337,1.9677,0.6835h0.001c0.9971-0.038,2.1455-0.3559,3.4043-0.9453
			c0.3692-0.1723,0.7793-0.209,1.0576-0.209c0.4258,0,0.8584,0.0826,1.2168,0.232l0.0215,0.0093
			c1.0186,0.3608,1.6856,1.0742,1.7002,1.8203c0.0127,0.7021-0.5234,1.7588-3.1543,2.7968
			c-0.2715,0.1075-0.6201,0.2173-0.9892,0.3355c-1.503,0.4756-3.7715,1.1968-4.4668,2.8364
			c-0.3809,0.8946-0.2588,1.9854,0.3613,3.2432c0.0058,0.0117,0.0117,0.0234,0.0176,0.0371
			c0.1875,0.4394,4.7304,10.7988,14.874,12.4707c0.374,0.0615,0.6416,0.3955,0.6211,0.7744
			c-0.0088,0.1426-0.042,0.2852-0.1045,0.4238c-0.418,0.9786-2.3037,2.3663-8.9014,3.3858c-0.539,0.083-0.748,0.7842-1.0693,2.2578
			c-0.1172,0.5361-0.2363,1.0625-0.3985,1.6162c-0.1406,0.4805-0.4404,0.7051-0.9443,0.7051h-0.082
			c-0.3496,0-0.8467-0.0625-1.4766-0.1856c-1.1162-0.2187-2.3691-0.4209-3.9619-0.4209c-0.9307,0-1.8936,0.0821-2.8613,0.2422
			c-1.9795,0.3301-3.6602,1.5166-5.4385,2.7744C71.2725,95.0557,68.6035,96.9424,64.4434,96.9424z"/>
	</g>
</g>
</svg>
