<?xml version="1.0" encoding="utf-8"?>
<!-- Generator: Adobe Illustrator 17.1.0, SVG Export Plug-In . SVG Version: 6.00 Build 0)  -->
<!DOCTYPE svg PUBLIC "-//W3C//DTD SVG 1.1//EN" "http://www.w3.org/Graphics/SVG/1.1/DTD/svg11.dtd">
<svg version="1.1" id="Stumbleupon" xmlns="http://www.w3.org/2000/svg" xmlns:xlink="http://www.w3.org/1999/xlink" x="0px"
	 y="0px" viewBox="0 0 128 128" enable-background="new 0 0 128 128" xml:space="preserve">
<g>
	<circle id="stumbleupon-back" fill="#929292" cx="64" cy="64" r="64"/>
	<path id="stumbleupon-stumbleupon" fill="#FFFFFF" d="M83.8232,90.8721c-8.8212,0-16.5634-6.9629-16.6191-15.5733V64.2402
		l5.4971,4.2149l6.249-4.4829v11.5063c0,2.0352,2.749,3.8574,4.8389,3.8574c2.0966,0,4.0986-1.8222,4.0986-3.8574V63.8833h11.9521
		v11.2651C99.8398,83.8516,92.6719,90.8721,83.8232,90.8721z M64.002,49.2031c-2.0909,0-3.0469,1.6455-3.0469,3.708v22.4483
		c-0.1494,8.6103-7.9854,15.5127-16.7686,15.5127c-8.8486,0-16.0263-7.0205-16.0263-15.7237V64.0303h11.8076v11
		c0,2.0322,2.1513,3.708,4.2461,3.708c2.0908,0,4.6953-1.6758,4.6953-3.708V52.2837c0.2939-8.4312,6.6367-15.1563,15.2705-15.1563
		c8.6992,0,14.4726,6.7837,14.7383,15.2442v4.9917l-5.4649,3.4399l-6.1933-3.5566v-4.3355
		C67.2598,50.8486,66.0977,49.2031,64.002,49.2031z"/>
</g>
</svg>
