<?xml version="1.0" encoding="utf-8"?>
<!-- Generator: Adobe Illustrator 17.1.0, SVG Export Plug-In . SVG Version: 6.00 Build 0)  -->
<!DOCTYPE svg PUBLIC "-//W3C//DTD SVG 1.1//EN" "http://www.w3.org/Graphics/SVG/1.1/DTD/svg11.dtd">
<svg version="1.1" id="Vine" xmlns="http://www.w3.org/2000/svg" xmlns:xlink="http://www.w3.org/1999/xlink" x="0px" y="0px"
	 viewBox="0 0 128 128" enable-background="new 0 0 128 128" xml:space="preserve">
<g id="vine-vine">
	<circle id="vine-back" fill="#929292" cx="64" cy="64" r="64"/>
	<path fill="#FFFFFF" d="M90.5459,64.3809c-8.4531,0-17.2637-4.4854-17.0371-16.168c0.0967-5.0322,1.9453-7.6494,4.6982-7.6494
		c2.6153,0,4.3604,2.3486,4.3604,7.1118c0,2.7095-0.7256,5.6772-1.2608,7.4331c0,0,2.6055,4.5454,9.7276,3.1514
		c1.5127-3.3594,2.334-7.708,2.334-11.5225c0-10.2656-5.2315-16.2373-14.8272-16.2373c-9.8613,0-15.6328,7.583-15.6328,17.5796
		c0,9.9018,4.6309,18.4048,12.2656,22.2749c-3.2109,6.4219-7.2949,12.0781-11.5551,16.3428
		c-7.7286-9.3448-14.7154-21.8091-17.5831-46.1338H34.6318c5.2696,40.5117,20.9698,53.4101,25.1192,55.8877
		c2.3476,1.4101,4.3711,1.3418,6.5185,0.1347c3.3692-1.917,13.4903-12.0351,19.0987-23.8886
		c0.9228-0.002,3.9941-0.044,5.0341-0.1328"/>
</g>
</svg>
