<?xml version="1.0" encoding="utf-8"?>
<!-- Generator: Adobe Illustrator 17.1.0, SVG Export Plug-In . SVG Version: 6.00 Build 0)  -->
<!DOCTYPE svg PUBLIC "-//W3C//DTD SVG 1.1//EN" "http://www.w3.org/Graphics/SVG/1.1/DTD/svg11.dtd">
<svg version="1.1" id="Yelp" xmlns="http://www.w3.org/2000/svg" xmlns:xlink="http://www.w3.org/1999/xlink" x="0px" y="0px"
	 viewBox="0 0 128 128" enable-background="new 0 0 128 128" xml:space="preserve">
<g id="yelp-yelp">
	<circle id="yelp-back" fill="#929292" cx="64" cy="64" r="64"/>
	<g id="yelp-yelp_1_">
		<g>
			<path fill="#FFFFFF" d="M38.082,62.6689c-1.167,1.8633-1.6557,7.7383-1.2529,11.6407c0.1411,1.2861,0.374,2.3574,0.7153,3.0009
				c0.4629,0.8868,1.2471,1.4122,2.1392,1.4424c0.5718,0.0323,0.9277-0.0654,11.6855-3.5244c0,0,4.7823-1.5264,4.8067-1.5371
				c1.1885-0.3008,1.9936-1.3984,2.0708-2.8008c0.0781-1.4355-0.6675-2.7031-1.8887-3.1601l-3.3755-1.3741
				c-11.5644-4.7705-12.081-4.9589-12.6655-4.9658C39.4258,61.3564,38.6309,61.8076,38.082,62.6689z"/>
			<path fill="#FFFFFF" d="M63.9468,98.2041c0.1889-0.54,0.2104-0.916,0.2397-12.2217c0,0,0.0283-4.9922,0.0347-5.0429
				c0.0747-1.2247-0.7153-2.336-2.0151-2.837c-1.3365-0.5175-2.7725-0.1962-3.5821,0.8057c0,0-2.3564,2.8018-2.3647,2.8018
				c-8.106,9.5146-8.44,9.9541-8.6353,10.5175c-0.1235,0.334-0.1719,0.6875-0.1303,1.0352
				c0.0483,0.5088,0.2758,1.0059,0.6567,1.4678c1.874,2.2383,10.8848,5.5488,13.7617,5.0615
				C62.9155,99.6064,63.6367,99.0469,63.9468,98.2041z"/>
			<path fill="#FFFFFF" d="M82.2158,94.2686c2.7178-1.0782,8.6465-8.6211,9.0596-11.5196c0.1455-1.0107-0.169-1.8779-0.8652-2.4345
				c-0.4571-0.3418-0.8067-0.4756-11.5567-4.003c0,0-4.7217-1.5595-4.7773-1.5918c-1.1387-0.4394-2.4414-0.0332-3.3223,1.0528
				c-0.9082,1.1093-1.0469,2.5703-0.3213,3.6777l1.8975,3.0889c6.3847,10.3711,6.872,11.1015,7.334,11.4609
				C80.375,94.5566,81.2793,94.6504,82.2158,94.2686L82.2158,94.2686z"/>
			<path fill="#FFFFFF" d="M76.666,67.5801c12.2197-2.96,12.6914-3.1172,13.1748-3.4287c0.7412-0.502,1.1113-1.334,1.0479-2.3516
				c0-0.0352,0.0068-0.0684,0-0.1055c-0.3145-2.997-5.5742-10.8076-8.1621-12.0722c-0.918-0.4395-1.8399-0.4073-2.5977,0.1015
				c-0.4766,0.3086-0.8184,0.7705-7.3613,9.7188c0,0-2.961,4.0293-2.9961,4.0693c-0.7774,0.9483-0.7861,2.3067-0.0313,3.4658
				c0.7911,1.21,2.1241,1.7989,3.3496,1.46c0,0-0.0527,0.084-0.0673,0.1025C73.626,68.3105,74.7051,68.0459,76.666,67.5801z"/>
			<path fill="#FFFFFF" d="M64.3931,57.4912L64.3931,57.4912C64.1826,52.6484,62.73,31.082,62.5552,30.084
				c-0.2495-0.9092-0.9507-1.5527-1.9712-1.8106c-3.1157-0.7734-15.0391,2.5694-17.252,4.8467
				c-0.7094,0.7422-0.9726,1.6543-0.7563,2.46c0.3432,0.7158,15.1211,23.957,15.1211,23.957
				c2.1831,3.542,3.9658,2.9961,4.5478,2.8086C62.8242,62.1709,64.5942,61.6182,64.3931,57.4912z"/>
		</g>
	</g>
</g>
</svg>
